<?xml version="1.0" encoding="UTF-8"?>
<svg xmlns="http://www.w3.org/2000/svg" width="1119" height="350" viewBox="0 0 1119 350" fill="none">
  <g opacity="0.2">
    <path d="M101.981 278.892C49.0443 278.892 7.26582 236.335 7.26582 181.582C7.26582 127.089 49.0443 84.7912 101.981 84.7912C153.101 84.7912 192.544 118.785 198.513 168.089H146.614C142.721 144.734 125.335 128.646 102.5 128.646C74.9936 128.646 57.6076 149.924 57.6076 181.582C57.6076 213.5 74.9936 235.038 102.5 235.038C125.076 235.038 142.462 218.949 146.614 195.335H198.513C192.285 245.158 153.101 278.892 101.981 278.892ZM309.049 278.892C255.334 278.892 213.036 238.152 213.036 181.582C213.036 125.013 255.334 84.7912 309.049 84.7912C363.023 84.7912 405.321 125.013 405.321 181.582C405.321 238.152 363.023 278.892 309.049 278.892ZM309.049 235.038C338.372 235.038 354.72 210.905 354.72 181.582C354.72 152.26 338.372 128.646 309.049 128.646C279.726 128.646 263.378 152.26 263.378 181.582C263.378 210.905 279.726 235.038 309.049 235.038ZM515.054 275L475.092 167.57V275H430.719V88.6836H488.586L535.554 215.057L582.263 88.6836H640.13V275H595.757V166.272L555.535 275H515.054ZM825.737 214.019C825.737 252.424 795.117 277.595 746.591 277.595C698.066 277.595 666.927 251.905 663.554 210.646H713.117C713.636 228.291 725.313 239.449 745.554 239.449C762.421 239.449 773.579 232.962 773.579 221.285C773.579 213.241 765.535 207.272 754.636 205.196L720.642 198.709C690.8 193 671.079 175.614 671.079 145.513C671.079 110.741 701.699 86.3481 743.478 86.3481C787.851 86.3481 819.769 111.779 822.623 152H773.06C771.762 135.133 760.345 124.234 743.997 124.234C729.465 124.234 720.642 132.019 720.642 142.139C720.642 150.443 728.946 155.373 738.807 157.19L774.876 164.196C808.091 170.684 825.737 187.032 825.737 214.019ZM929.624 278.892C876.687 278.892 834.908 236.335 834.908 181.582C834.908 127.089 876.687 84.7912 929.624 84.7912C980.744 84.7912 1020.19 118.785 1026.16 168.089H974.257C970.364 144.734 952.978 128.646 930.143 128.646C902.636 128.646 885.25 149.924 885.25 181.582C885.25 213.5 902.636 235.038 930.143 235.038C952.719 235.038 970.105 218.949 974.257 195.335H1026.16C1019.93 245.158 980.744 278.892 929.624 278.892ZM1100.62 275H1051.58V88.6836H1100.62V275Z" fill="white"></path>
  </g>
</svg>
