<?xml version="1.0" encoding="UTF-8"?>
<svg xmlns="http://www.w3.org/2000/svg" width="127" height="30" viewBox="0 0 127 30" fill="none">
  <path d="M11.9874 3.04517H17.7939L6.78574 19.036H0.999695L11.9874 3.04517Z" fill="white" stroke="white" stroke-width="0.0410754"></path>
  <path d="M17.7501 10.964H23.5566L12.5484 26.9548H6.76239L17.7501 10.964Z" fill="white" stroke="white" stroke-width="0.0410754"></path>
  <path d="M36.932 24.3383C32.3305 24.3383 28.699 20.6391 28.699 15.8797C28.699 11.1429 32.3305 7.4662 36.932 7.4662C41.3756 7.4662 44.8042 10.4211 45.323 14.7068H40.8117C40.4733 12.6767 38.9621 11.2782 36.9771 11.2782C34.5862 11.2782 33.0749 13.1278 33.0749 15.8797C33.0749 18.6541 34.5862 20.5263 36.9771 20.5263C38.9395 20.5263 40.4508 19.1278 40.8117 17.0752H45.323C44.7816 21.406 41.3756 24.3383 36.932 24.3383ZM54.9312 24.3383C50.2621 24.3383 46.5854 20.797 46.5854 15.8797C46.5854 10.9624 50.2621 7.4662 54.9312 7.4662C59.6229 7.4662 63.2996 10.9624 63.2996 15.8797C63.2996 20.797 59.6229 24.3383 54.9312 24.3383ZM54.9312 20.5263C57.4801 20.5263 58.9011 18.4286 58.9011 15.8797C58.9011 13.3308 57.4801 11.2782 54.9312 11.2782C52.3824 11.2782 50.9613 13.3308 50.9613 15.8797C50.9613 18.4286 52.3824 20.5263 54.9312 20.5263ZM72.8381 24L69.3644 14.6617V24H65.5073V7.80455H70.5374L74.6201 18.7895L78.6802 7.80455H83.7102V24H79.8531V14.5489L76.3569 24H72.8381ZM99.844 18.6992C99.844 22.0376 97.1823 24.2255 92.9643 24.2255C88.7463 24.2255 86.0395 21.9925 85.7463 18.406H90.0546C90.0997 19.9398 91.1147 20.9098 92.8741 20.9098C94.3402 20.9098 95.3102 20.3458 95.3102 19.3308C95.3102 18.6316 94.6109 18.1128 93.6636 17.9323L90.7087 17.3684C88.1147 16.8722 86.4004 15.3609 86.4004 12.7444C86.4004 9.72183 89.0621 7.60154 92.6936 7.60154C96.5508 7.60154 99.3252 9.81206 99.5733 13.3083H95.2651C95.1523 11.8421 94.1598 10.8948 92.7388 10.8948C91.4756 10.8948 90.7087 11.5714 90.7087 12.4511C90.7087 13.1729 91.4305 13.6015 92.2876 13.7594L95.423 14.3684C98.3102 14.9323 99.844 16.3534 99.844 18.6992ZM108.874 24.3383C104.273 24.3383 100.641 20.6391 100.641 15.8797C100.641 11.1429 104.273 7.4662 108.874 7.4662C113.318 7.4662 116.746 10.4211 117.265 14.7068H112.754C112.416 12.6767 110.904 11.2782 108.919 11.2782C106.528 11.2782 105.017 13.1278 105.017 15.8797C105.017 18.6541 106.528 20.5263 108.919 20.5263C110.882 20.5263 112.393 19.1278 112.754 17.0752H117.265C116.724 21.406 113.318 24.3383 108.874 24.3383ZM123.738 24H119.475V7.80455H123.738V24Z" fill="white"></path>
</svg>
